<!DOCTYPE svg PUBLIC "-//W3C//DTD SVG 20010904//EN" "http://www.w3.org/TR/2001/REC-SVG-20010904/DTD/svg10.dtd">
<svg version="1.0" xmlns="http://www.w3.org/2000/svg" width="531px" height="531px" viewBox="0 0 5310 5310" preserveAspectRatio="xMidYMid meet">
<g id="layer101" fill="#880202" stroke="none">
 <path d="M0 2655 l0 -2655 2655 0 2655 0 0 2655 0 2655 -2655 0 -2655 0 0 -2655z"/>
 </g>
<g id="layer102" fill="#fefdfd" stroke="none">
 <path d="M0 2655 l0 -2655 2655 0 2655 0 0 2655 0 2655 -2655 0 -2655 0 0 -2655z m2925 2605 c283 -31 498 -85 758 -189 318 -128 650 -363 905 -642 355 -389 566 -823 663 -1367 30 -167 38 -555 15 -735 -111 -861 -596 -1574 -1353 -1991 -335 -185 -766 -302 -1178 -322 -306 -15 -806 87 -1125 231 -303 136 -526 289 -769 528 -219 215 -378 432 -510 693 -163 326 -238 608 -272 1025 -24 293 23 644 127 964 183 559 553 1037 1069 1382 199 133 355 213 560 288 163 59 424 117 609 134 119 12 398 12 501 1z"/>
 <path d="M2450 5210 c-283 -19 -655 -124 -897 -254 -264 -142 -462 -285 -661 -480 -161 -157 -236 -246 -351 -416 -192 -282 -320 -595 -391 -950 -42 -212 -54 -346 -47 -539 20 -574 226 -1122 587 -1566 330 -406 827 -721 1346 -855 211 -55 334 -72 551 -77 447 -12 831 72 1218 264 260 130 436 255 653 468 355 346 592 758 702 1220 59 250 65 306 65 620 -1 257 -3 304 -23 418 -78 436 -243 814 -504 1160 -87 116 -324 354 -448 452 -340 267 -672 418 -1123 509 -151 31 -436 42 -677 26z m560 -354 c527 -82 955 -298 1310 -662 342 -351 540 -754 611 -1244 18 -124 21 -176 16 -370 -8 -378 -77 -657 -246 -988 -221 -432 -568 -775 -1006 -995 -151 -76 -200 -96 -349 -143 -397 -125 -861 -136 -1249 -29 -478 131 -845 360 -1161 725 -175 203 -291 396 -396 661 -101 253 -140 455 -147 760 -8 327 16 498 108 774 210 631 671 1118 1298 1369 225 91 522 155 781 169 84 4 325 -11 430 -27z"/>
 <path d="M2370 4079 c-364 -16 -702 -72 -890 -146 -194 -77 -327 -214 -408 -423 -127 -321 -155 -1039 -61 -1526 52 -271 169 -472 338 -578 107 -68 346 -142 549 -170 170 -24 543 -46 777 -46 237 0 600 22 762 45 209 31 439 102 554 171 93 56 181 158 239 277 100 205 159 565 160 968 l0 126 -152 6 c-83 4 -747 7 -1475 7 l-1323 0 0 93 c0 121 16 250 47 367 72 281 150 335 578 397 103 15 198 17 665 17 500 -1 558 -2 700 -22 280 -39 384 -94 440 -231 8 -19 23 -75 35 -125 l21 -91 230 0 229 0 3 38 c5 58 -26 248 -54 341 -102 325 -325 436 -979 487 -390 30 -633 34 -985 18z m1209 -1709 l323 0 -6 -77 c-27 -301 -91 -478 -201 -551 -72 -47 -144 -71 -300 -97 -209 -35 -374 -45 -719 -45 -345 1 -494 9 -701 40 -404 59 -480 157 -539 682 l-6 48 473 3 c259 2 670 2 912 0 242 -1 586 -3 764 -3z"/>
 </g>

</svg>